<mxfile host="app.diagrams.net" modified="2023-02-09T14:10:01.840Z" agent="5.0 (Windows NT 10.0; Win64; x64) AppleWebKit/537.36 (KHTML, like Gecko) Chrome/109.0.5414.120 Safari/537.36" etag="f9eowXZhVMFU53uZfL_d" version="20.8.15" type="github">
  <diagram name="Page-1" id="sjG4DysbOh6MQ5VIM363">
    <mxGraphModel dx="1195" dy="630" grid="1" gridSize="10" guides="1" tooltips="1" connect="1" arrows="1" fold="1" page="1" pageScale="1" pageWidth="850" pageHeight="1100" math="0" shadow="0">
      <root>
        <mxCell id="0" />
        <mxCell id="1" parent="0" />
        <mxCell id="1_t3aM_1tZM-ysJRbMeo-1" value="&lt;div style=&quot;font-size: 20px;&quot;&gt;&lt;span style=&quot;background-color: initial;&quot;&gt;&lt;font style=&quot;font-size: 20px;&quot;&gt;Safe&lt;/font&gt;&lt;/span&gt;&lt;/div&gt;&lt;div style=&quot;font-size: 20px;&quot;&gt;&lt;span style=&quot;background-color: initial;&quot;&gt;&lt;font style=&quot;font-size: 20px;&quot;&gt;----&lt;/font&gt;&lt;/span&gt;&lt;/div&gt;&lt;div style=&quot;font-size: 20px;&quot;&gt;&lt;br&gt;&lt;/div&gt;&lt;div style=&quot;font-size: 20px;&quot;&gt;&lt;font style=&quot;font-size: 20px;&quot;&gt;loop:&lt;/font&gt;&lt;/div&gt;&lt;div style=&quot;font-size: 20px;&quot;&gt;&lt;font style=&quot;font-size: 20px;&quot;&gt;&lt;br&gt;&lt;/font&gt;&lt;/div&gt;&lt;div style=&quot;font-size: 20px;&quot;&gt;&lt;br&gt;&lt;/div&gt;" style="rounded=0;whiteSpace=wrap;html=1;align=left;" vertex="1" parent="1">
          <mxGeometry x="260" y="20" width="160" height="200" as="geometry" />
        </mxCell>
        <mxCell id="1_t3aM_1tZM-ysJRbMeo-2" value="&lt;div style=&quot;border-color: var(--border-color); font-size: 20px;&quot;&gt;&lt;font style=&quot;font-size: 20px;&quot;&gt;Warn&lt;/font&gt;&lt;/div&gt;&lt;div style=&quot;border-color: var(--border-color); font-size: 20px;&quot;&gt;&lt;span style=&quot;border-color: var(--border-color); background-color: initial;&quot;&gt;&lt;font style=&quot;border-color: var(--border-color); font-size: 20px;&quot;&gt;----&lt;/font&gt;&lt;/span&gt;&lt;/div&gt;&lt;div style=&quot;border-color: var(--border-color); font-size: 20px;&quot;&gt;&lt;br&gt;&lt;/div&gt;&lt;div style=&quot;border-color: var(--border-color); font-size: 20px;&quot;&gt;&lt;font style=&quot;border-color: var(--border-color); font-size: 20px;&quot;&gt;loop:&lt;/font&gt;&lt;/div&gt;&lt;div style=&quot;border-color: var(--border-color); font-size: 20px;&quot;&gt;&lt;font style=&quot;font-size: 20px;&quot;&gt;&lt;br style=&quot;border-color: var(--border-color);&quot;&gt;&lt;/font&gt;&lt;/div&gt;&lt;div style=&quot;border-color: var(--border-color); font-size: 20px;&quot;&gt;&lt;br style=&quot;border-color: var(--border-color);&quot;&gt;&lt;/div&gt;" style="rounded=0;whiteSpace=wrap;html=1;align=left;" vertex="1" parent="1">
          <mxGeometry x="260" y="370" width="150" height="180" as="geometry" />
        </mxCell>
        <mxCell id="1_t3aM_1tZM-ysJRbMeo-3" value="&lt;font style=&quot;font-size: 20px;&quot;&gt;Danger&lt;br&gt;---&lt;br&gt;&lt;br&gt;loop:&lt;/font&gt;" style="rounded=0;whiteSpace=wrap;html=1;align=left;" vertex="1" parent="1">
          <mxGeometry x="260" y="690" width="150" height="150" as="geometry" />
        </mxCell>
        <mxCell id="1_t3aM_1tZM-ysJRbMeo-5" value="" style="endArrow=classic;html=1;rounded=0;fontSize=15;exitX=1;exitY=0.5;exitDx=0;exitDy=0;entryX=1;entryY=0.5;entryDx=0;entryDy=0;" edge="1" parent="1" source="1_t3aM_1tZM-ysJRbMeo-1" target="1_t3aM_1tZM-ysJRbMeo-3">
          <mxGeometry width="50" height="50" relative="1" as="geometry">
            <mxPoint x="480" y="270" as="sourcePoint" />
            <mxPoint x="590" y="540" as="targetPoint" />
            <Array as="points">
              <mxPoint x="540" y="120" />
              <mxPoint x="540" y="760" />
            </Array>
          </mxGeometry>
        </mxCell>
        <mxCell id="1_t3aM_1tZM-ysJRbMeo-25" value="" style="endArrow=classic;html=1;rounded=0;fontSize=20;exitX=0.581;exitY=1.002;exitDx=0;exitDy=0;exitPerimeter=0;entryX=0.637;entryY=0.005;entryDx=0;entryDy=0;entryPerimeter=0;" edge="1" parent="1" source="1_t3aM_1tZM-ysJRbMeo-1" target="1_t3aM_1tZM-ysJRbMeo-2">
          <mxGeometry width="50" height="50" relative="1" as="geometry">
            <mxPoint x="360" y="400" as="sourcePoint" />
            <mxPoint x="410" y="350" as="targetPoint" />
          </mxGeometry>
        </mxCell>
        <mxCell id="1_t3aM_1tZM-ysJRbMeo-26" value="" style="endArrow=classic;html=1;rounded=0;fontSize=20;exitX=0.75;exitY=1;exitDx=0;exitDy=0;entryX=0.75;entryY=0;entryDx=0;entryDy=0;" edge="1" parent="1" source="1_t3aM_1tZM-ysJRbMeo-2" target="1_t3aM_1tZM-ysJRbMeo-3">
          <mxGeometry width="50" height="50" relative="1" as="geometry">
            <mxPoint x="360" y="490" as="sourcePoint" />
            <mxPoint x="410" y="440" as="targetPoint" />
          </mxGeometry>
        </mxCell>
        <mxCell id="1_t3aM_1tZM-ysJRbMeo-27" value="" style="endArrow=classic;html=1;rounded=0;fontSize=20;exitX=-0.018;exitY=0.545;exitDx=0;exitDy=0;exitPerimeter=0;entryX=-0.006;entryY=0.445;entryDx=0;entryDy=0;entryPerimeter=0;" edge="1" parent="1" source="1_t3aM_1tZM-ysJRbMeo-3" target="1_t3aM_1tZM-ysJRbMeo-1">
          <mxGeometry width="50" height="50" relative="1" as="geometry">
            <mxPoint x="360" y="580" as="sourcePoint" />
            <mxPoint x="150" y="310" as="targetPoint" />
            <Array as="points">
              <mxPoint x="180" y="770" />
              <mxPoint x="190" y="110" />
            </Array>
          </mxGeometry>
        </mxCell>
        <mxCell id="1_t3aM_1tZM-ysJRbMeo-28" value="Note:&lt;br&gt;&lt;br&gt;Par1 : fn1&lt;br&gt;Par2 : fn2&lt;br&gt;Par3:&amp;nbsp; fn3&lt;br&gt;= run fn1,fn2,fn3 at the same time" style="rounded=0;whiteSpace=wrap;html=1;fontSize=20;align=left;" vertex="1" parent="1">
          <mxGeometry x="711" y="13" width="319" height="207" as="geometry" />
        </mxCell>
      </root>
    </mxGraphModel>
  </diagram>
</mxfile>
